<svg width="820" height="60" fill="none" xmlns="http://www.w3.org/2000/svg"><path d="M565.029 47.816l-.411.017.05.35c-.447-.32-1.812-.295-2.456-.402a75.47 75.47 0 0 1-2.303-.421c-.942-.187-3.301-.353-3.655-1.148-.402-.902 1.403-2.004 2.126-2.644l2.05-1.818 1.118-.991.373-.33c.306-.444.484-.442.536.006l.828.1-.217.045.646-.518-.189-.299c.523.202.422.853-.22 1.025-.5.133-.77.085-1.135-.144a.5.5 0 0 1-.205-.62l.069-.163a.934.934 0 0 1 .645-.519c1.131-.228 1.863.437 1.195 1.245-.577.697-1.537 1.34-2.256 1.97l-2.445 2.133c-.361.315-.836.636-1.128.984-.179.23-.251.218-.216-.03a73.317 73.317 0 0 0 3.507.988c.998.255 2.008.488 3.027.705.464.1.862.126.973.508.035.123-.044.267-.198.345-.211.106-.334.106-.545.05-.138-.038-.171-.163-.143-.267l.015-.055c.05-.19.467-.273.564-.102" fill="#000"/><path d="M556.898 45.636c3.06-.797 5.722-2.076 8.12-3.813.64-.464 1.537.134.897.608-2.499 1.854-5.578 3.161-8.825 3.813-.54.109-.747-.464-.192-.608zM568.359 39.845c.998-.82 1.943-1.671 2.8-2.572.705-.742 1.262-1.626 2.121-2.274.384-.29 1.084-.105.89.315-.398.864-1.355 1.674-2.146 2.39-.975.882-2.03 1.709-3.141 2.496-.376.266-.882-.062-.524-.355M575.607 32.849a24.408 24.408 0 0 0 4.174-6.289c.273-.584 1.44-.452 1.185.143-.983 2.298-2.707 4.511-4.821 6.414-.267.24-.777-.005-.538-.268M580.811 23.457c-.093-.716.03-1.465.073-2.197.033-.565.336-1.727-.196-2.102-.27-.19-.201-.556.154-.736l.132-.067a.932.932 0 0 1 .873.013c.755.409.402 1.435.304 2.08-.147.964-.265 2.029-.777 2.965-.099.18-.532.285-.563.044zM580.987 15.118c-.38-.848-.761-1.696-1.135-2.546-.296-.67-.463-1.819-1.089-2.3-.298-.228-.212-.585.169-.805.046-.027.093-.054.141-.08.312-.18.715-.132.965.013.759.44.782 1.557.986 2.237.32 1.07.634 2.14.947 3.21.136.466-.789.707-.984.27" fill="#000"/></svg>