<svg width="820" height="60" fill="none" xmlns="http://www.w3.org/2000/svg"><path d="M260.709 47.816l.412.017-.051.35c.447-.32 1.812-.295 2.456-.402a75.47 75.47 0 0 0 2.303-.421c.942-.187 3.302-.353 3.656-1.148.401-.902-1.404-2.004-2.127-2.644l-2.05-1.818-1.118-.991-.373-.33c-.306-.444-.484-.442-.535.006l-.829.1.217.045-.646-.518.189-.299c-.523.202-.422.853.22 1.025.5.133.771.085 1.135-.144a.5.5 0 0 0 .205-.62l-.068-.163a.936.936 0 0 0-.646-.519c-1.13-.228-1.863.437-1.195 1.245.577.697 1.537 1.34 2.257 1.97l2.444 2.133c.361.315.836.636 1.129.984.178.23.25.218.215-.03a76.572 76.572 0 0 1-3.507.988c-.998.255-2.008.488-3.027.705-.463.1-.862.126-.972.508-.036.123.043.267.197.345.211.106.334.106.545.05.139-.038.171-.163.143-.267l-.014-.055c-.051-.19-.468-.273-.565-.102" fill="#000"/><path d="M268.84 45.636c-3.059-.797-5.722-2.076-8.12-3.813-.64-.464-1.536.134-.897.608 2.499 1.854 5.579 3.161 8.826 3.813.539.109.746-.464.191-.608zM257.379 39.845a31.153 31.153 0 0 1-2.8-2.572c-.705-.742-1.261-1.626-2.121-2.274-.383-.29-1.084-.105-.89.315.398.864 1.355 1.674 2.146 2.39.975.882 2.03 1.709 3.141 2.496.376.266.882-.062.524-.355M250.131 32.849a24.408 24.408 0 0 1-4.174-6.289c-.272-.584-1.44-.452-1.185.143.983 2.298 2.707 4.511 4.822 6.414.266.24.776-.005.537-.268M244.927 23.457c.093-.716-.03-1.465-.073-2.197-.033-.565-.336-1.727.196-2.102.27-.19.201-.556-.154-.736l-.132-.067a.932.932 0 0 0-.873.013c-.755.409-.402 1.435-.303 2.08.146.964.265 2.029.777 2.965.098.18.531.285.562.044zM244.751 15.118c.38-.848.761-1.696 1.135-2.546.296-.67.463-1.819 1.089-2.3.298-.228.212-.585-.168-.805l-.141-.08c-.313-.18-.716-.132-.966.013-.759.44-.782 1.557-.986 2.237-.32 1.07-.634 2.14-.947 3.21-.136.466.789.707.984.27" fill="#000"/></svg>